<?xml version="1.0" encoding="utf-8" standalone="no"?>
<!DOCTYPE svg PUBLIC "-//W3C//DTD SVG 1.1//EN"
  "http://www.w3.org/Graphics/SVG/1.1/DTD/svg11.dtd">
<!-- Created with matplotlib (http://matplotlib.org/) -->
<svg height="720pt" version="1.1" viewBox="0 0 1080 720" width="1080pt" xmlns="http://www.w3.org/2000/svg" xmlns:xlink="http://www.w3.org/1999/xlink">
 <defs>
  <style type="text/css">
*{stroke-linecap:butt;stroke-linejoin:round;}
  </style>
 </defs>
 <g id="figure_1">
  <g id="patch_1">
   <path d="M 0 720 
L 1080 720 
L 1080 0 
L 0 0 
z
" style="fill:#ffffff;"/>
  </g>
  <g id="axes_1">
   <g id="patch_2">
    <path d="M 135 630 
L 972 630 
L 972 86.4 
L 135 86.4 
z
" style="fill:#ffffff;"/>
   </g>
   <g id="text_1">
    <!-- Sir Joseph Norman Lockyer -->
    <defs>
     <path d="M 53.515625 70.515625 
L 53.515625 60.890625 
Q 47.90625 63.578125 42.921875 64.890625 
Q 37.9375 66.21875 33.296875 66.21875 
Q 25.25 66.21875 20.875 63.09375 
Q 16.5 59.96875 16.5 54.203125 
Q 16.5 49.359375 19.40625 46.890625 
Q 22.3125 44.4375 30.421875 42.921875 
L 36.375 41.703125 
Q 47.40625 39.59375 52.65625 34.296875 
Q 57.90625 29 57.90625 20.125 
Q 57.90625 9.515625 50.796875 4.046875 
Q 43.703125 -1.421875 29.984375 -1.421875 
Q 24.8125 -1.421875 18.96875 -0.25 
Q 13.140625 0.921875 6.890625 3.21875 
L 6.890625 13.375 
Q 12.890625 10.015625 18.65625 8.296875 
Q 24.421875 6.59375 29.984375 6.59375 
Q 38.421875 6.59375 43.015625 9.90625 
Q 47.609375 13.234375 47.609375 19.390625 
Q 47.609375 24.75 44.3125 27.78125 
Q 41.015625 30.8125 33.5 32.328125 
L 27.484375 33.5 
Q 16.453125 35.6875 11.515625 40.375 
Q 6.59375 45.0625 6.59375 53.421875 
Q 6.59375 63.09375 13.40625 68.65625 
Q 20.21875 74.21875 32.171875 74.21875 
Q 37.3125 74.21875 42.625 73.28125 
Q 47.953125 72.359375 53.515625 70.515625 
z
" id="DejaVuSans-53"/>
     <path d="M 9.421875 54.6875 
L 18.40625 54.6875 
L 18.40625 0 
L 9.421875 0 
z
M 9.421875 75.984375 
L 18.40625 75.984375 
L 18.40625 64.59375 
L 9.421875 64.59375 
z
" id="DejaVuSans-69"/>
     <path d="M 41.109375 46.296875 
Q 39.59375 47.171875 37.8125 47.578125 
Q 36.03125 48 33.890625 48 
Q 26.265625 48 22.1875 43.046875 
Q 18.109375 38.09375 18.109375 28.8125 
L 18.109375 0 
L 9.078125 0 
L 9.078125 54.6875 
L 18.109375 54.6875 
L 18.109375 46.1875 
Q 20.953125 51.171875 25.484375 53.578125 
Q 30.03125 56 36.53125 56 
Q 37.453125 56 38.578125 55.875 
Q 39.703125 55.765625 41.0625 55.515625 
z
" id="DejaVuSans-72"/>
     <path id="DejaVuSans-20"/>
     <path d="M 9.8125 72.90625 
L 19.671875 72.90625 
L 19.671875 5.078125 
Q 19.671875 -8.109375 14.671875 -14.0625 
Q 9.671875 -20.015625 -1.421875 -20.015625 
L -5.171875 -20.015625 
L -5.171875 -11.71875 
L -2.09375 -11.71875 
Q 4.4375 -11.71875 7.125 -8.046875 
Q 9.8125 -4.390625 9.8125 5.078125 
z
" id="DejaVuSans-4a"/>
     <path d="M 30.609375 48.390625 
Q 23.390625 48.390625 19.1875 42.75 
Q 14.984375 37.109375 14.984375 27.296875 
Q 14.984375 17.484375 19.15625 11.84375 
Q 23.34375 6.203125 30.609375 6.203125 
Q 37.796875 6.203125 41.984375 11.859375 
Q 46.1875 17.53125 46.1875 27.296875 
Q 46.1875 37.015625 41.984375 42.703125 
Q 37.796875 48.390625 30.609375 48.390625 
z
M 30.609375 56 
Q 42.328125 56 49.015625 48.375 
Q 55.71875 40.765625 55.71875 27.296875 
Q 55.71875 13.875 49.015625 6.21875 
Q 42.328125 -1.421875 30.609375 -1.421875 
Q 18.84375 -1.421875 12.171875 6.21875 
Q 5.515625 13.875 5.515625 27.296875 
Q 5.515625 40.765625 12.171875 48.375 
Q 18.84375 56 30.609375 56 
z
" id="DejaVuSans-6f"/>
     <path d="M 44.28125 53.078125 
L 44.28125 44.578125 
Q 40.484375 46.53125 36.375 47.5 
Q 32.28125 48.484375 27.875 48.484375 
Q 21.1875 48.484375 17.84375 46.4375 
Q 14.5 44.390625 14.5 40.28125 
Q 14.5 37.15625 16.890625 35.375 
Q 19.28125 33.59375 26.515625 31.984375 
L 29.59375 31.296875 
Q 39.15625 29.25 43.1875 25.515625 
Q 47.21875 21.78125 47.21875 15.09375 
Q 47.21875 7.46875 41.1875 3.015625 
Q 35.15625 -1.421875 24.609375 -1.421875 
Q 20.21875 -1.421875 15.453125 -0.5625 
Q 10.6875 0.296875 5.421875 2 
L 5.421875 11.28125 
Q 10.40625 8.6875 15.234375 7.390625 
Q 20.0625 6.109375 24.8125 6.109375 
Q 31.15625 6.109375 34.5625 8.28125 
Q 37.984375 10.453125 37.984375 14.40625 
Q 37.984375 18.0625 35.515625 20.015625 
Q 33.0625 21.96875 24.703125 23.78125 
L 21.578125 24.515625 
Q 13.234375 26.265625 9.515625 29.90625 
Q 5.8125 33.546875 5.8125 39.890625 
Q 5.8125 47.609375 11.28125 51.796875 
Q 16.75 56 26.8125 56 
Q 31.78125 56 36.171875 55.265625 
Q 40.578125 54.546875 44.28125 53.078125 
z
" id="DejaVuSans-73"/>
     <path d="M 56.203125 29.59375 
L 56.203125 25.203125 
L 14.890625 25.203125 
Q 15.484375 15.921875 20.484375 11.0625 
Q 25.484375 6.203125 34.421875 6.203125 
Q 39.59375 6.203125 44.453125 7.46875 
Q 49.3125 8.734375 54.109375 11.28125 
L 54.109375 2.78125 
Q 49.265625 0.734375 44.1875 -0.34375 
Q 39.109375 -1.421875 33.890625 -1.421875 
Q 20.796875 -1.421875 13.15625 6.1875 
Q 5.515625 13.8125 5.515625 26.8125 
Q 5.515625 40.234375 12.765625 48.109375 
Q 20.015625 56 32.328125 56 
Q 43.359375 56 49.78125 48.890625 
Q 56.203125 41.796875 56.203125 29.59375 
z
M 47.21875 32.234375 
Q 47.125 39.59375 43.09375 43.984375 
Q 39.0625 48.390625 32.421875 48.390625 
Q 24.90625 48.390625 20.390625 44.140625 
Q 15.875 39.890625 15.1875 32.171875 
z
" id="DejaVuSans-65"/>
     <path d="M 18.109375 8.203125 
L 18.109375 -20.796875 
L 9.078125 -20.796875 
L 9.078125 54.6875 
L 18.109375 54.6875 
L 18.109375 46.390625 
Q 20.953125 51.265625 25.265625 53.625 
Q 29.59375 56 35.59375 56 
Q 45.5625 56 51.78125 48.09375 
Q 58.015625 40.1875 58.015625 27.296875 
Q 58.015625 14.40625 51.78125 6.484375 
Q 45.5625 -1.421875 35.59375 -1.421875 
Q 29.59375 -1.421875 25.265625 0.953125 
Q 20.953125 3.328125 18.109375 8.203125 
z
M 48.6875 27.296875 
Q 48.6875 37.203125 44.609375 42.84375 
Q 40.53125 48.484375 33.40625 48.484375 
Q 26.265625 48.484375 22.1875 42.84375 
Q 18.109375 37.203125 18.109375 27.296875 
Q 18.109375 17.390625 22.1875 11.75 
Q 26.265625 6.109375 33.40625 6.109375 
Q 40.53125 6.109375 44.609375 11.75 
Q 48.6875 17.390625 48.6875 27.296875 
z
" id="DejaVuSans-70"/>
     <path d="M 54.890625 33.015625 
L 54.890625 0 
L 45.90625 0 
L 45.90625 32.71875 
Q 45.90625 40.484375 42.875 44.328125 
Q 39.84375 48.1875 33.796875 48.1875 
Q 26.515625 48.1875 22.3125 43.546875 
Q 18.109375 38.921875 18.109375 30.90625 
L 18.109375 0 
L 9.078125 0 
L 9.078125 75.984375 
L 18.109375 75.984375 
L 18.109375 46.1875 
Q 21.34375 51.125 25.703125 53.5625 
Q 30.078125 56 35.796875 56 
Q 45.21875 56 50.046875 50.171875 
Q 54.890625 44.34375 54.890625 33.015625 
z
" id="DejaVuSans-68"/>
     <path d="M 9.8125 72.90625 
L 23.09375 72.90625 
L 55.421875 11.921875 
L 55.421875 72.90625 
L 64.984375 72.90625 
L 64.984375 0 
L 51.703125 0 
L 19.390625 60.984375 
L 19.390625 0 
L 9.8125 0 
z
" id="DejaVuSans-4e"/>
     <path d="M 52 44.1875 
Q 55.375 50.25 60.0625 53.125 
Q 64.75 56 71.09375 56 
Q 79.640625 56 84.28125 50.015625 
Q 88.921875 44.046875 88.921875 33.015625 
L 88.921875 0 
L 79.890625 0 
L 79.890625 32.71875 
Q 79.890625 40.578125 77.09375 44.375 
Q 74.3125 48.1875 68.609375 48.1875 
Q 61.625 48.1875 57.5625 43.546875 
Q 53.515625 38.921875 53.515625 30.90625 
L 53.515625 0 
L 44.484375 0 
L 44.484375 32.71875 
Q 44.484375 40.625 41.703125 44.40625 
Q 38.921875 48.1875 33.109375 48.1875 
Q 26.21875 48.1875 22.15625 43.53125 
Q 18.109375 38.875 18.109375 30.90625 
L 18.109375 0 
L 9.078125 0 
L 9.078125 54.6875 
L 18.109375 54.6875 
L 18.109375 46.1875 
Q 21.1875 51.21875 25.484375 53.609375 
Q 29.78125 56 35.6875 56 
Q 41.65625 56 45.828125 52.96875 
Q 50 49.953125 52 44.1875 
z
" id="DejaVuSans-6d"/>
     <path d="M 34.28125 27.484375 
Q 23.390625 27.484375 19.1875 25 
Q 14.984375 22.515625 14.984375 16.5 
Q 14.984375 11.71875 18.140625 8.90625 
Q 21.296875 6.109375 26.703125 6.109375 
Q 34.1875 6.109375 38.703125 11.40625 
Q 43.21875 16.703125 43.21875 25.484375 
L 43.21875 27.484375 
z
M 52.203125 31.203125 
L 52.203125 0 
L 43.21875 0 
L 43.21875 8.296875 
Q 40.140625 3.328125 35.546875 0.953125 
Q 30.953125 -1.421875 24.3125 -1.421875 
Q 15.921875 -1.421875 10.953125 3.296875 
Q 6 8.015625 6 15.921875 
Q 6 25.140625 12.171875 29.828125 
Q 18.359375 34.515625 30.609375 34.515625 
L 43.21875 34.515625 
L 43.21875 35.40625 
Q 43.21875 41.609375 39.140625 45 
Q 35.0625 48.390625 27.6875 48.390625 
Q 23 48.390625 18.546875 47.265625 
Q 14.109375 46.140625 10.015625 43.890625 
L 10.015625 52.203125 
Q 14.9375 54.109375 19.578125 55.046875 
Q 24.21875 56 28.609375 56 
Q 40.484375 56 46.34375 49.84375 
Q 52.203125 43.703125 52.203125 31.203125 
z
" id="DejaVuSans-61"/>
     <path d="M 54.890625 33.015625 
L 54.890625 0 
L 45.90625 0 
L 45.90625 32.71875 
Q 45.90625 40.484375 42.875 44.328125 
Q 39.84375 48.1875 33.796875 48.1875 
Q 26.515625 48.1875 22.3125 43.546875 
Q 18.109375 38.921875 18.109375 30.90625 
L 18.109375 0 
L 9.078125 0 
L 9.078125 54.6875 
L 18.109375 54.6875 
L 18.109375 46.1875 
Q 21.34375 51.125 25.703125 53.5625 
Q 30.078125 56 35.796875 56 
Q 45.21875 56 50.046875 50.171875 
Q 54.890625 44.34375 54.890625 33.015625 
z
" id="DejaVuSans-6e"/>
     <path d="M 9.8125 72.90625 
L 19.671875 72.90625 
L 19.671875 8.296875 
L 55.171875 8.296875 
L 55.171875 0 
L 9.8125 0 
z
" id="DejaVuSans-4c"/>
     <path d="M 48.78125 52.59375 
L 48.78125 44.1875 
Q 44.96875 46.296875 41.140625 47.34375 
Q 37.3125 48.390625 33.40625 48.390625 
Q 24.65625 48.390625 19.8125 42.84375 
Q 14.984375 37.3125 14.984375 27.296875 
Q 14.984375 17.28125 19.8125 11.734375 
Q 24.65625 6.203125 33.40625 6.203125 
Q 37.3125 6.203125 41.140625 7.25 
Q 44.96875 8.296875 48.78125 10.40625 
L 48.78125 2.09375 
Q 45.015625 0.34375 40.984375 -0.53125 
Q 36.96875 -1.421875 32.421875 -1.421875 
Q 20.0625 -1.421875 12.78125 6.34375 
Q 5.515625 14.109375 5.515625 27.296875 
Q 5.515625 40.671875 12.859375 48.328125 
Q 20.21875 56 33.015625 56 
Q 37.15625 56 41.109375 55.140625 
Q 45.0625 54.296875 48.78125 52.59375 
z
" id="DejaVuSans-63"/>
     <path d="M 9.078125 75.984375 
L 18.109375 75.984375 
L 18.109375 31.109375 
L 44.921875 54.6875 
L 56.390625 54.6875 
L 27.390625 29.109375 
L 57.625 0 
L 45.90625 0 
L 18.109375 26.703125 
L 18.109375 0 
L 9.078125 0 
z
" id="DejaVuSans-6b"/>
     <path d="M 32.171875 -5.078125 
Q 28.375 -14.84375 24.75 -17.8125 
Q 21.140625 -20.796875 15.09375 -20.796875 
L 7.90625 -20.796875 
L 7.90625 -13.28125 
L 13.1875 -13.28125 
Q 16.890625 -13.28125 18.9375 -11.515625 
Q 21 -9.765625 23.484375 -3.21875 
L 25.09375 0.875 
L 2.984375 54.6875 
L 12.5 54.6875 
L 29.59375 11.921875 
L 46.6875 54.6875 
L 56.203125 54.6875 
z
" id="DejaVuSans-79"/>
    </defs>
    <g style="opacity:0.6;" transform="translate(214.811366 303.536071)rotate(-90)scale(0.14 -0.14)">
     <use xlink:href="#DejaVuSans-53"/>
     <use x="63.476562" xlink:href="#DejaVuSans-69"/>
     <use x="91.259766" xlink:href="#DejaVuSans-72"/>
     <use x="132.373047" xlink:href="#DejaVuSans-20"/>
     <use x="164.160156" xlink:href="#DejaVuSans-4a"/>
     <use x="193.652344" xlink:href="#DejaVuSans-6f"/>
     <use x="254.833984" xlink:href="#DejaVuSans-73"/>
     <use x="306.933594" xlink:href="#DejaVuSans-65"/>
     <use x="368.457031" xlink:href="#DejaVuSans-70"/>
     <use x="431.933594" xlink:href="#DejaVuSans-68"/>
     <use x="495.3125" xlink:href="#DejaVuSans-20"/>
     <use x="527.099609" xlink:href="#DejaVuSans-4e"/>
     <use x="601.904297" xlink:href="#DejaVuSans-6f"/>
     <use x="663.085938" xlink:href="#DejaVuSans-72"/>
     <use x="704.183594" xlink:href="#DejaVuSans-6d"/>
     <use x="801.595703" xlink:href="#DejaVuSans-61"/>
     <use x="862.875" xlink:href="#DejaVuSans-6e"/>
     <use x="926.253906" xlink:href="#DejaVuSans-20"/>
     <use x="958.041016" xlink:href="#DejaVuSans-4c"/>
     <use x="1013.738281" xlink:href="#DejaVuSans-6f"/>
     <use x="1074.919922" xlink:href="#DejaVuSans-63"/>
     <use x="1129.900391" xlink:href="#DejaVuSans-6b"/>
     <use x="1187.763672" xlink:href="#DejaVuSans-79"/>
     <use x="1246.943359" xlink:href="#DejaVuSans-65"/>
     <use x="1308.466797" xlink:href="#DejaVuSans-72"/>
    </g>
   </g>
   <g id="text_2">
    <!-- Sir Richard Arman Gregory -->
    <defs>
     <path d="M 44.390625 34.1875 
Q 47.5625 33.109375 50.5625 29.59375 
Q 53.5625 26.078125 56.59375 19.921875 
L 66.609375 0 
L 56 0 
L 46.6875 18.703125 
Q 43.0625 26.03125 39.671875 28.421875 
Q 36.28125 30.8125 30.421875 30.8125 
L 19.671875 30.8125 
L 19.671875 0 
L 9.8125 0 
L 9.8125 72.90625 
L 32.078125 72.90625 
Q 44.578125 72.90625 50.734375 67.671875 
Q 56.890625 62.453125 56.890625 51.90625 
Q 56.890625 45.015625 53.6875 40.46875 
Q 50.484375 35.9375 44.390625 34.1875 
z
M 19.671875 64.796875 
L 19.671875 38.921875 
L 32.078125 38.921875 
Q 39.203125 38.921875 42.84375 42.21875 
Q 46.484375 45.515625 46.484375 51.90625 
Q 46.484375 58.296875 42.84375 61.546875 
Q 39.203125 64.796875 32.078125 64.796875 
z
" id="DejaVuSans-52"/>
     <path d="M 45.40625 46.390625 
L 45.40625 75.984375 
L 54.390625 75.984375 
L 54.390625 0 
L 45.40625 0 
L 45.40625 8.203125 
Q 42.578125 3.328125 38.25 0.953125 
Q 33.9375 -1.421875 27.875 -1.421875 
Q 17.96875 -1.421875 11.734375 6.484375 
Q 5.515625 14.40625 5.515625 27.296875 
Q 5.515625 40.1875 11.734375 48.09375 
Q 17.96875 56 27.875 56 
Q 33.9375 56 38.25 53.625 
Q 42.578125 51.265625 45.40625 46.390625 
z
M 14.796875 27.296875 
Q 14.796875 17.390625 18.875 11.75 
Q 22.953125 6.109375 30.078125 6.109375 
Q 37.203125 6.109375 41.296875 11.75 
Q 45.40625 17.390625 45.40625 27.296875 
Q 45.40625 37.203125 41.296875 42.84375 
Q 37.203125 48.484375 30.078125 48.484375 
Q 22.953125 48.484375 18.875 42.84375 
Q 14.796875 37.203125 14.796875 27.296875 
z
" id="DejaVuSans-64"/>
     <path d="M 34.1875 63.1875 
L 20.796875 26.90625 
L 47.609375 26.90625 
z
M 28.609375 72.90625 
L 39.796875 72.90625 
L 67.578125 0 
L 57.328125 0 
L 50.6875 18.703125 
L 17.828125 18.703125 
L 11.1875 0 
L 0.78125 0 
z
" id="DejaVuSans-41"/>
     <path d="M 59.515625 10.40625 
L 59.515625 29.984375 
L 43.40625 29.984375 
L 43.40625 38.09375 
L 69.28125 38.09375 
L 69.28125 6.78125 
Q 63.578125 2.734375 56.6875 0.65625 
Q 49.8125 -1.421875 42 -1.421875 
Q 24.90625 -1.421875 15.25 8.5625 
Q 5.609375 18.5625 5.609375 36.375 
Q 5.609375 54.25 15.25 64.234375 
Q 24.90625 74.21875 42 74.21875 
Q 49.125 74.21875 55.546875 72.453125 
Q 61.96875 70.703125 67.390625 67.28125 
L 67.390625 56.78125 
Q 61.921875 61.421875 55.765625 63.765625 
Q 49.609375 66.109375 42.828125 66.109375 
Q 29.4375 66.109375 22.71875 58.640625 
Q 16.015625 51.171875 16.015625 36.375 
Q 16.015625 21.625 22.71875 14.15625 
Q 29.4375 6.6875 42.828125 6.6875 
Q 48.046875 6.6875 52.140625 7.59375 
Q 56.25 8.5 59.515625 10.40625 
z
" id="DejaVuSans-47"/>
     <path d="M 45.40625 27.984375 
Q 45.40625 37.75 41.375 43.109375 
Q 37.359375 48.484375 30.078125 48.484375 
Q 22.859375 48.484375 18.828125 43.109375 
Q 14.796875 37.75 14.796875 27.984375 
Q 14.796875 18.265625 18.828125 12.890625 
Q 22.859375 7.515625 30.078125 7.515625 
Q 37.359375 7.515625 41.375 12.890625 
Q 45.40625 18.265625 45.40625 27.984375 
z
M 54.390625 6.78125 
Q 54.390625 -7.171875 48.1875 -13.984375 
Q 42 -20.796875 29.203125 -20.796875 
Q 24.46875 -20.796875 20.265625 -20.09375 
Q 16.0625 -19.390625 12.109375 -17.921875 
L 12.109375 -9.1875 
Q 16.0625 -11.328125 19.921875 -12.34375 
Q 23.78125 -13.375 27.78125 -13.375 
Q 36.625 -13.375 41.015625 -8.765625 
Q 45.40625 -4.15625 45.40625 5.171875 
L 45.40625 9.625 
Q 42.625 4.78125 38.28125 2.390625 
Q 33.9375 0 27.875 0 
Q 17.828125 0 11.671875 7.65625 
Q 5.515625 15.328125 5.515625 27.984375 
Q 5.515625 40.671875 11.671875 48.328125 
Q 17.828125 56 27.875 56 
Q 33.9375 56 38.28125 53.609375 
Q 42.625 51.21875 45.40625 46.390625 
L 45.40625 54.6875 
L 54.390625 54.6875 
z
" id="DejaVuSans-67"/>
    </defs>
    <g style="opacity:0.6;" transform="translate(339.323763 303.006696)rotate(-90)scale(0.14 -0.14)">
     <use xlink:href="#DejaVuSans-53"/>
     <use x="63.476562" xlink:href="#DejaVuSans-69"/>
     <use x="91.259766" xlink:href="#DejaVuSans-72"/>
     <use x="132.373047" xlink:href="#DejaVuSans-20"/>
     <use x="164.160156" xlink:href="#DejaVuSans-52"/>
     <use x="233.642578" xlink:href="#DejaVuSans-69"/>
     <use x="261.425781" xlink:href="#DejaVuSans-63"/>
     <use x="316.40625" xlink:href="#DejaVuSans-68"/>
     <use x="379.785156" xlink:href="#DejaVuSans-61"/>
     <use x="441.064453" xlink:href="#DejaVuSans-72"/>
     <use x="482.162109" xlink:href="#DejaVuSans-64"/>
     <use x="545.638672" xlink:href="#DejaVuSans-20"/>
     <use x="577.425781" xlink:href="#DejaVuSans-41"/>
     <use x="645.833984" xlink:href="#DejaVuSans-72"/>
     <use x="686.931641" xlink:href="#DejaVuSans-6d"/>
     <use x="784.34375" xlink:href="#DejaVuSans-61"/>
     <use x="845.623047" xlink:href="#DejaVuSans-6e"/>
     <use x="909.001953" xlink:href="#DejaVuSans-20"/>
     <use x="940.789062" xlink:href="#DejaVuSans-47"/>
     <use x="1018.279297" xlink:href="#DejaVuSans-72"/>
     <use x="1059.361328" xlink:href="#DejaVuSans-65"/>
     <use x="1120.884766" xlink:href="#DejaVuSans-67"/>
     <use x="1184.361328" xlink:href="#DejaVuSans-6f"/>
     <use x="1245.542969" xlink:href="#DejaVuSans-72"/>
     <use x="1286.65625" xlink:href="#DejaVuSans-79"/>
    </g>
   </g>
   <g id="text_3">
    <!-- L. J. F. Brimble -->
    <defs>
     <path d="M 10.6875 12.40625 
L 21 12.40625 
L 21 0 
L 10.6875 0 
z
" id="DejaVuSans-2e"/>
     <path d="M 9.8125 72.90625 
L 51.703125 72.90625 
L 51.703125 64.59375 
L 19.671875 64.59375 
L 19.671875 43.109375 
L 48.578125 43.109375 
L 48.578125 34.8125 
L 19.671875 34.8125 
L 19.671875 0 
L 9.8125 0 
z
" id="DejaVuSans-46"/>
     <path d="M 19.671875 34.8125 
L 19.671875 8.109375 
L 35.5 8.109375 
Q 43.453125 8.109375 47.28125 11.40625 
Q 51.125 14.703125 51.125 21.484375 
Q 51.125 28.328125 47.28125 31.5625 
Q 43.453125 34.8125 35.5 34.8125 
z
M 19.671875 64.796875 
L 19.671875 42.828125 
L 34.28125 42.828125 
Q 41.5 42.828125 45.03125 45.53125 
Q 48.578125 48.25 48.578125 53.8125 
Q 48.578125 59.328125 45.03125 62.0625 
Q 41.5 64.796875 34.28125 64.796875 
z
M 9.8125 72.90625 
L 35.015625 72.90625 
Q 46.296875 72.90625 52.390625 68.21875 
Q 58.5 63.53125 58.5 54.890625 
Q 58.5 48.1875 55.375 44.234375 
Q 52.25 40.28125 46.1875 39.3125 
Q 53.46875 37.75 57.5 32.78125 
Q 61.53125 27.828125 61.53125 20.40625 
Q 61.53125 10.640625 54.890625 5.3125 
Q 48.25 0 35.984375 0 
L 9.8125 0 
z
" id="DejaVuSans-42"/>
     <path d="M 48.6875 27.296875 
Q 48.6875 37.203125 44.609375 42.84375 
Q 40.53125 48.484375 33.40625 48.484375 
Q 26.265625 48.484375 22.1875 42.84375 
Q 18.109375 37.203125 18.109375 27.296875 
Q 18.109375 17.390625 22.1875 11.75 
Q 26.265625 6.109375 33.40625 6.109375 
Q 40.53125 6.109375 44.609375 11.75 
Q 48.6875 17.390625 48.6875 27.296875 
z
M 18.109375 46.390625 
Q 20.953125 51.265625 25.265625 53.625 
Q 29.59375 56 35.59375 56 
Q 45.5625 56 51.78125 48.09375 
Q 58.015625 40.1875 58.015625 27.296875 
Q 58.015625 14.40625 51.78125 6.484375 
Q 45.5625 -1.421875 35.59375 -1.421875 
Q 29.59375 -1.421875 25.265625 0.953125 
Q 20.953125 3.328125 18.109375 8.203125 
L 18.109375 0 
L 9.078125 0 
L 9.078125 75.984375 
L 18.109375 75.984375 
z
" id="DejaVuSans-62"/>
     <path d="M 9.421875 75.984375 
L 18.40625 75.984375 
L 18.40625 0 
L 9.421875 0 
z
" id="DejaVuSans-6c"/>
    </defs>
    <g style="opacity:0.6;" transform="translate(505.340292 215.513259)rotate(-90)scale(0.14 -0.14)">
     <use xlink:href="#DejaVuSans-4c"/>
     <use x="55.712891" xlink:href="#DejaVuSans-2e"/>
     <use x="87.5" xlink:href="#DejaVuSans-20"/>
     <use x="119.287109" xlink:href="#DejaVuSans-4a"/>
     <use x="148.779297" xlink:href="#DejaVuSans-2e"/>
     <use x="180.566406" xlink:href="#DejaVuSans-20"/>
     <use x="212.353516" xlink:href="#DejaVuSans-46"/>
     <use x="269.623047" xlink:href="#DejaVuSans-2e"/>
     <use x="301.410156" xlink:href="#DejaVuSans-20"/>
     <use x="333.197266" xlink:href="#DejaVuSans-42"/>
     <use x="401.800781" xlink:href="#DejaVuSans-72"/>
     <use x="442.914062" xlink:href="#DejaVuSans-69"/>
     <use x="470.697266" xlink:href="#DejaVuSans-6d"/>
     <use x="568.109375" xlink:href="#DejaVuSans-62"/>
     <use x="631.585938" xlink:href="#DejaVuSans-6c"/>
     <use x="659.369141" xlink:href="#DejaVuSans-65"/>
    </g>
   </g>
   <g id="text_4">
    <!-- A. J. V. Gale -->
    <defs>
     <path d="M 28.609375 0 
L 0.78125 72.90625 
L 11.078125 72.90625 
L 34.1875 11.53125 
L 57.328125 72.90625 
L 67.578125 72.90625 
L 39.796875 0 
z
" id="DejaVuSans-56"/>
    </defs>
    <g style="opacity:0.6;" transform="translate(484.588226 196.473259)rotate(-90)scale(0.14 -0.14)">
     <use xlink:href="#DejaVuSans-41"/>
     <use x="68.392578" xlink:href="#DejaVuSans-2e"/>
     <use x="100.179688" xlink:href="#DejaVuSans-20"/>
     <use x="131.966797" xlink:href="#DejaVuSans-4a"/>
     <use x="161.458984" xlink:href="#DejaVuSans-2e"/>
     <use x="193.246094" xlink:href="#DejaVuSans-20"/>
     <use x="225.033203" xlink:href="#DejaVuSans-56"/>
     <use x="293.253906" xlink:href="#DejaVuSans-2e"/>
     <use x="325.041016" xlink:href="#DejaVuSans-20"/>
     <use x="356.828125" xlink:href="#DejaVuSans-47"/>
     <use x="434.318359" xlink:href="#DejaVuSans-61"/>
     <use x="495.597656" xlink:href="#DejaVuSans-6c"/>
     <use x="523.380859" xlink:href="#DejaVuSans-65"/>
    </g>
   </g>
   <g id="text_5">
    <!-- Sir John Royden Maddox -->
    <defs>
     <path d="M 9.8125 72.90625 
L 24.515625 72.90625 
L 43.109375 23.296875 
L 61.8125 72.90625 
L 76.515625 72.90625 
L 76.515625 0 
L 66.890625 0 
L 66.890625 64.015625 
L 48.09375 14.015625 
L 38.1875 14.015625 
L 19.390625 64.015625 
L 19.390625 0 
L 9.8125 0 
z
" id="DejaVuSans-4d"/>
     <path d="M 54.890625 54.6875 
L 35.109375 28.078125 
L 55.90625 0 
L 45.3125 0 
L 29.390625 21.484375 
L 13.484375 0 
L 2.875 0 
L 24.125 28.609375 
L 4.6875 54.6875 
L 15.28125 54.6875 
L 29.78125 35.203125 
L 44.28125 54.6875 
z
" id="DejaVuSans-78"/>
    </defs>
    <g style="opacity:0.6;" transform="translate(622.935333 285.139196)rotate(-90)scale(0.14 -0.14)">
     <use xlink:href="#DejaVuSans-53"/>
     <use x="63.476562" xlink:href="#DejaVuSans-69"/>
     <use x="91.259766" xlink:href="#DejaVuSans-72"/>
     <use x="132.373047" xlink:href="#DejaVuSans-20"/>
     <use x="164.160156" xlink:href="#DejaVuSans-4a"/>
     <use x="193.652344" xlink:href="#DejaVuSans-6f"/>
     <use x="254.833984" xlink:href="#DejaVuSans-68"/>
     <use x="318.212891" xlink:href="#DejaVuSans-6e"/>
     <use x="381.591797" xlink:href="#DejaVuSans-20"/>
     <use x="413.378906" xlink:href="#DejaVuSans-52"/>
     <use x="482.798828" xlink:href="#DejaVuSans-6f"/>
     <use x="543.980469" xlink:href="#DejaVuSans-79"/>
     <use x="603.160156" xlink:href="#DejaVuSans-64"/>
     <use x="666.636719" xlink:href="#DejaVuSans-65"/>
     <use x="728.160156" xlink:href="#DejaVuSans-6e"/>
     <use x="791.539062" xlink:href="#DejaVuSans-20"/>
     <use x="823.326172" xlink:href="#DejaVuSans-4d"/>
     <use x="909.605469" xlink:href="#DejaVuSans-61"/>
     <use x="970.884766" xlink:href="#DejaVuSans-64"/>
     <use x="1034.361328" xlink:href="#DejaVuSans-64"/>
     <use x="1097.837891" xlink:href="#DejaVuSans-6f"/>
     <use x="1158.972656" xlink:href="#DejaVuSans-78"/>
    </g>
   </g>
   <g id="text_6">
    <!-- Sir John Royden Maddox -->
    <g style="opacity:0.6;" transform="translate(747.44773 285.139196)rotate(-90)scale(0.14 -0.14)">
     <use xlink:href="#DejaVuSans-53"/>
     <use x="63.476562" xlink:href="#DejaVuSans-69"/>
     <use x="91.259766" xlink:href="#DejaVuSans-72"/>
     <use x="132.373047" xlink:href="#DejaVuSans-20"/>
     <use x="164.160156" xlink:href="#DejaVuSans-4a"/>
     <use x="193.652344" xlink:href="#DejaVuSans-6f"/>
     <use x="254.833984" xlink:href="#DejaVuSans-68"/>
     <use x="318.212891" xlink:href="#DejaVuSans-6e"/>
     <use x="381.591797" xlink:href="#DejaVuSans-20"/>
     <use x="413.378906" xlink:href="#DejaVuSans-52"/>
     <use x="482.798828" xlink:href="#DejaVuSans-6f"/>
     <use x="543.980469" xlink:href="#DejaVuSans-79"/>
     <use x="603.160156" xlink:href="#DejaVuSans-64"/>
     <use x="666.636719" xlink:href="#DejaVuSans-65"/>
     <use x="728.160156" xlink:href="#DejaVuSans-6e"/>
     <use x="791.539062" xlink:href="#DejaVuSans-20"/>
     <use x="823.326172" xlink:href="#DejaVuSans-4d"/>
     <use x="909.605469" xlink:href="#DejaVuSans-61"/>
     <use x="970.884766" xlink:href="#DejaVuSans-64"/>
     <use x="1034.361328" xlink:href="#DejaVuSans-64"/>
     <use x="1097.837891" xlink:href="#DejaVuSans-6f"/>
     <use x="1158.972656" xlink:href="#DejaVuSans-78"/>
    </g>
   </g>
   <g id="text_7">
    <!-- David Dai Davies -->
    <defs>
     <path d="M 19.671875 64.796875 
L 19.671875 8.109375 
L 31.59375 8.109375 
Q 46.6875 8.109375 53.6875 14.9375 
Q 60.6875 21.78125 60.6875 36.53125 
Q 60.6875 51.171875 53.6875 57.984375 
Q 46.6875 64.796875 31.59375 64.796875 
z
M 9.8125 72.90625 
L 30.078125 72.90625 
Q 51.265625 72.90625 61.171875 64.09375 
Q 71.09375 55.28125 71.09375 36.53125 
Q 71.09375 17.671875 61.125 8.828125 
Q 51.171875 0 30.078125 0 
L 9.8125 0 
z
" id="DejaVuSans-44"/>
     <path d="M 2.984375 54.6875 
L 12.5 54.6875 
L 29.59375 8.796875 
L 46.6875 54.6875 
L 56.203125 54.6875 
L 35.6875 0 
L 23.484375 0 
z
" id="DejaVuSans-76"/>
    </defs>
    <g style="opacity:0.6;" transform="translate(671.356821 234.603571)rotate(-90)scale(0.14 -0.14)">
     <use xlink:href="#DejaVuSans-44"/>
     <use x="77.001953" xlink:href="#DejaVuSans-61"/>
     <use x="138.28125" xlink:href="#DejaVuSans-76"/>
     <use x="197.460938" xlink:href="#DejaVuSans-69"/>
     <use x="225.244141" xlink:href="#DejaVuSans-64"/>
     <use x="288.720703" xlink:href="#DejaVuSans-20"/>
     <use x="320.507812" xlink:href="#DejaVuSans-44"/>
     <use x="397.509766" xlink:href="#DejaVuSans-61"/>
     <use x="458.789062" xlink:href="#DejaVuSans-69"/>
     <use x="486.572266" xlink:href="#DejaVuSans-20"/>
     <use x="518.359375" xlink:href="#DejaVuSans-44"/>
     <use x="595.361328" xlink:href="#DejaVuSans-61"/>
     <use x="656.640625" xlink:href="#DejaVuSans-76"/>
     <use x="715.820312" xlink:href="#DejaVuSans-69"/>
     <use x="743.603516" xlink:href="#DejaVuSans-65"/>
     <use x="805.126953" xlink:href="#DejaVuSans-73"/>
    </g>
   </g>
   <g id="text_8">
    <!-- Philip Campbell -->
    <defs>
     <path d="M 19.671875 64.796875 
L 19.671875 37.40625 
L 32.078125 37.40625 
Q 38.96875 37.40625 42.71875 40.96875 
Q 46.484375 44.53125 46.484375 51.125 
Q 46.484375 57.671875 42.71875 61.234375 
Q 38.96875 64.796875 32.078125 64.796875 
z
M 9.8125 72.90625 
L 32.078125 72.90625 
Q 44.34375 72.90625 50.609375 67.359375 
Q 56.890625 61.8125 56.890625 51.125 
Q 56.890625 40.328125 50.609375 34.8125 
Q 44.34375 29.296875 32.078125 29.296875 
L 19.671875 29.296875 
L 19.671875 0 
L 9.8125 0 
z
" id="DejaVuSans-50"/>
     <path d="M 64.40625 67.28125 
L 64.40625 56.890625 
Q 59.421875 61.53125 53.78125 63.8125 
Q 48.140625 66.109375 41.796875 66.109375 
Q 29.296875 66.109375 22.65625 58.46875 
Q 16.015625 50.828125 16.015625 36.375 
Q 16.015625 21.96875 22.65625 14.328125 
Q 29.296875 6.6875 41.796875 6.6875 
Q 48.140625 6.6875 53.78125 8.984375 
Q 59.421875 11.28125 64.40625 15.921875 
L 64.40625 5.609375 
Q 59.234375 2.09375 53.4375 0.328125 
Q 47.65625 -1.421875 41.21875 -1.421875 
Q 24.65625 -1.421875 15.125 8.703125 
Q 5.609375 18.84375 5.609375 36.375 
Q 5.609375 53.953125 15.125 64.078125 
Q 24.65625 74.21875 41.21875 74.21875 
Q 47.75 74.21875 53.53125 72.484375 
Q 59.328125 70.75 64.40625 67.28125 
z
" id="DejaVuSans-43"/>
    </defs>
    <g style="opacity:0.6;" transform="translate(885.794837 223.071071)rotate(-90)scale(0.14 -0.14)">
     <use xlink:href="#DejaVuSans-50"/>
     <use x="60.302734" xlink:href="#DejaVuSans-68"/>
     <use x="123.681641" xlink:href="#DejaVuSans-69"/>
     <use x="151.464844" xlink:href="#DejaVuSans-6c"/>
     <use x="179.248047" xlink:href="#DejaVuSans-69"/>
     <use x="207.03125" xlink:href="#DejaVuSans-70"/>
     <use x="270.507812" xlink:href="#DejaVuSans-20"/>
     <use x="302.294922" xlink:href="#DejaVuSans-43"/>
     <use x="372.119141" xlink:href="#DejaVuSans-61"/>
     <use x="433.398438" xlink:href="#DejaVuSans-6d"/>
     <use x="530.810547" xlink:href="#DejaVuSans-70"/>
     <use x="594.287109" xlink:href="#DejaVuSans-62"/>
     <use x="657.763672" xlink:href="#DejaVuSans-65"/>
     <use x="719.287109" xlink:href="#DejaVuSans-6c"/>
     <use x="747.070312" xlink:href="#DejaVuSans-6c"/>
    </g>
   </g>
   <g id="text_9">
    <!-- Magdalena Skipper -->
    <g style="opacity:0.6;" transform="translate(968.803102 249.038884)rotate(-90)scale(0.14 -0.14)">
     <use xlink:href="#DejaVuSans-4d"/>
     <use x="86.279297" xlink:href="#DejaVuSans-61"/>
     <use x="147.558594" xlink:href="#DejaVuSans-67"/>
     <use x="211.035156" xlink:href="#DejaVuSans-64"/>
     <use x="274.511719" xlink:href="#DejaVuSans-61"/>
     <use x="335.791016" xlink:href="#DejaVuSans-6c"/>
     <use x="363.574219" xlink:href="#DejaVuSans-65"/>
     <use x="425.097656" xlink:href="#DejaVuSans-6e"/>
     <use x="488.476562" xlink:href="#DejaVuSans-61"/>
     <use x="549.755859" xlink:href="#DejaVuSans-20"/>
     <use x="581.542969" xlink:href="#DejaVuSans-53"/>
     <use x="645.019531" xlink:href="#DejaVuSans-6b"/>
     <use x="702.929688" xlink:href="#DejaVuSans-69"/>
     <use x="730.712891" xlink:href="#DejaVuSans-70"/>
     <use x="794.189453" xlink:href="#DejaVuSans-70"/>
     <use x="857.666016" xlink:href="#DejaVuSans-65"/>
     <use x="919.189453" xlink:href="#DejaVuSans-72"/>
    </g>
   </g>
   <g id="PolyCollection_1">
    <path clip-path="url(#pbbbbf00aba)" d="M 266.429752 590.350593 
L 259.512397 587.67841 
L 252.595041 591.289467 
L 245.677686 584.572901 
L 238.760331 582.695151 
L 231.842975 581.467392 
L 231.842975 581.467392 
L 231.842975 572.016 
L 238.760331 573.482857 
L 245.677686 575.726286 
L 252.595041 583.750857 
L 259.512397 579.436571 
z
" style="fill:#ff0000;fill-opacity:0.6;"/>
   </g>
   <g id="PolyCollection_2">
    <path clip-path="url(#pbbbbf00aba)" d="M 446.280992 524.123805 
L 446.280992 524.123805 
L 439.363636 560.595482 
L 432.446281 573.089739 
L 425.528926 573.73973 
L 418.61157 574.245278 
L 411.694215 562.473231 
L 404.77686 557.201088 
L 404.77686 557.201088 
L 404.77686 543.024 
L 411.694215 549.322857 
L 418.61157 563.387429 
L 425.528926 562.783429 
L 432.446281 562.006857 
L 439.363636 547.079429 
L 446.280992 503.505143 
z
" style="fill:#ff0000;fill-opacity:0.6;"/>
   </g>
   <g id="PolyCollection_3">
    <path clip-path="url(#pbbbbf00aba)" d="M 653.801653 412.253254 
L 646.884298 404.38115 
L 639.966942 439.841731 
L 633.049587 467.430207 
L 626.132231 409.869957 
L 626.132231 409.869957 
L 626.132231 367.001143 
L 633.049587 435.770857 
L 639.966942 402.809714 
L 646.884298 360.443429 
z
" style="fill:#ff0000;fill-opacity:0.6;"/>
   </g>
   <g id="PolyCollection_4">
    <path clip-path="url(#pbbbbf00aba)" d="M 259.512397 630 
L 259.512397 630 
L 252.595041 630 
L 245.677686 630 
L 238.760331 630 
L 231.842975 630 
L 238.760331 -775941.428571 
L 245.677686 -775941.428571 
L 252.595041 -775941.428571 
L 259.512397 -775941.428571 
z
" style="fill:#808080;fill-opacity:0.1;"/>
   </g>
   <g id="PolyCollection_5">
    <path clip-path="url(#pbbbbf00aba)" d="M 446.280992 630 
L 446.280992 630 
L 439.363636 630 
L 432.446281 630 
L 425.528926 630 
L 418.61157 630 
L 411.694215 630 
L 404.77686 630 
L 411.694215 -775941.428571 
L 418.61157 -775941.428571 
L 425.528926 -775941.428571 
L 432.446281 -775941.428571 
L 439.363636 -775941.428571 
L 446.280992 -775941.428571 
z
" style="fill:#808080;fill-opacity:0.1;"/>
   </g>
   <g id="matplotlib.axis_1">
    <g id="xtick_1">
     <g id="line2d_1">
      <defs>
       <path d="M 0 0 
L 0 3.5 
" id="m444441429c" style="stroke:#000000;stroke-width:0.8;"/>
      </defs>
      <g>
       <use style="stroke:#000000;stroke-width:0.8;" x="135" xlink:href="#m444441429c" y="630"/>
      </g>
     </g>
     <g id="text_10">
      <!-- 1900 -->
      <defs>
       <path d="M 12.40625 8.296875 
L 28.515625 8.296875 
L 28.515625 63.921875 
L 10.984375 60.40625 
L 10.984375 69.390625 
L 28.421875 72.90625 
L 38.28125 72.90625 
L 38.28125 8.296875 
L 54.390625 8.296875 
L 54.390625 0 
L 12.40625 0 
z
" id="DejaVuSans-31"/>
       <path d="M 10.984375 1.515625 
L 10.984375 10.5 
Q 14.703125 8.734375 18.5 7.8125 
Q 22.3125 6.890625 25.984375 6.890625 
Q 35.75 6.890625 40.890625 13.453125 
Q 46.046875 20.015625 46.78125 33.40625 
Q 43.953125 29.203125 39.59375 26.953125 
Q 35.25 24.703125 29.984375 24.703125 
Q 19.046875 24.703125 12.671875 31.3125 
Q 6.296875 37.9375 6.296875 49.421875 
Q 6.296875 60.640625 12.9375 67.421875 
Q 19.578125 74.21875 30.609375 74.21875 
Q 43.265625 74.21875 49.921875 64.515625 
Q 56.59375 54.828125 56.59375 36.375 
Q 56.59375 19.140625 48.40625 8.859375 
Q 40.234375 -1.421875 26.421875 -1.421875 
Q 22.703125 -1.421875 18.890625 -0.6875 
Q 15.09375 0.046875 10.984375 1.515625 
z
M 30.609375 32.421875 
Q 37.25 32.421875 41.125 36.953125 
Q 45.015625 41.5 45.015625 49.421875 
Q 45.015625 57.28125 41.125 61.84375 
Q 37.25 66.40625 30.609375 66.40625 
Q 23.96875 66.40625 20.09375 61.84375 
Q 16.21875 57.28125 16.21875 49.421875 
Q 16.21875 41.5 20.09375 36.953125 
Q 23.96875 32.421875 30.609375 32.421875 
z
" id="DejaVuSans-39"/>
       <path d="M 31.78125 66.40625 
Q 24.171875 66.40625 20.328125 58.90625 
Q 16.5 51.421875 16.5 36.375 
Q 16.5 21.390625 20.328125 13.890625 
Q 24.171875 6.390625 31.78125 6.390625 
Q 39.453125 6.390625 43.28125 13.890625 
Q 47.125 21.390625 47.125 36.375 
Q 47.125 51.421875 43.28125 58.90625 
Q 39.453125 66.40625 31.78125 66.40625 
z
M 31.78125 74.21875 
Q 44.046875 74.21875 50.515625 64.515625 
Q 56.984375 54.828125 56.984375 36.375 
Q 56.984375 17.96875 50.515625 8.265625 
Q 44.046875 -1.421875 31.78125 -1.421875 
Q 19.53125 -1.421875 13.0625 8.265625 
Q 6.59375 17.96875 6.59375 36.375 
Q 6.59375 54.828125 13.0625 64.515625 
Q 19.53125 74.21875 31.78125 74.21875 
z
" id="DejaVuSans-30"/>
      </defs>
      <g transform="translate(122.275 644.598438)scale(0.1 -0.1)">
       <use xlink:href="#DejaVuSans-31"/>
       <use x="63.623047" xlink:href="#DejaVuSans-39"/>
       <use x="127.246094" xlink:href="#DejaVuSans-30"/>
       <use x="190.869141" xlink:href="#DejaVuSans-30"/>
      </g>
     </g>
    </g>
    <g id="xtick_2">
     <g id="line2d_2">
      <g>
       <use style="stroke:#000000;stroke-width:0.8;" x="273.347107" xlink:href="#m444441429c" y="630"/>
      </g>
     </g>
     <g id="text_11">
      <!-- 1920 -->
      <defs>
       <path d="M 19.1875 8.296875 
L 53.609375 8.296875 
L 53.609375 0 
L 7.328125 0 
L 7.328125 8.296875 
Q 12.9375 14.109375 22.625 23.890625 
Q 32.328125 33.6875 34.8125 36.53125 
Q 39.546875 41.84375 41.421875 45.53125 
Q 43.3125 49.21875 43.3125 52.78125 
Q 43.3125 58.59375 39.234375 62.25 
Q 35.15625 65.921875 28.609375 65.921875 
Q 23.96875 65.921875 18.8125 64.3125 
Q 13.671875 62.703125 7.8125 59.421875 
L 7.8125 69.390625 
Q 13.765625 71.78125 18.9375 73 
Q 24.125 74.21875 28.421875 74.21875 
Q 39.75 74.21875 46.484375 68.546875 
Q 53.21875 62.890625 53.21875 53.421875 
Q 53.21875 48.921875 51.53125 44.890625 
Q 49.859375 40.875 45.40625 35.40625 
Q 44.1875 33.984375 37.640625 27.21875 
Q 31.109375 20.453125 19.1875 8.296875 
z
" id="DejaVuSans-32"/>
      </defs>
      <g transform="translate(260.622107 644.598438)scale(0.1 -0.1)">
       <use xlink:href="#DejaVuSans-31"/>
       <use x="63.623047" xlink:href="#DejaVuSans-39"/>
       <use x="127.246094" xlink:href="#DejaVuSans-32"/>
       <use x="190.869141" xlink:href="#DejaVuSans-30"/>
      </g>
     </g>
    </g>
    <g id="xtick_3">
     <g id="line2d_3">
      <g>
       <use style="stroke:#000000;stroke-width:0.8;" x="411.694215" xlink:href="#m444441429c" y="630"/>
      </g>
     </g>
     <g id="text_12">
      <!-- 1940 -->
      <defs>
       <path d="M 37.796875 64.3125 
L 12.890625 25.390625 
L 37.796875 25.390625 
z
M 35.203125 72.90625 
L 47.609375 72.90625 
L 47.609375 25.390625 
L 58.015625 25.390625 
L 58.015625 17.1875 
L 47.609375 17.1875 
L 47.609375 0 
L 37.796875 0 
L 37.796875 17.1875 
L 4.890625 17.1875 
L 4.890625 26.703125 
z
" id="DejaVuSans-34"/>
      </defs>
      <g transform="translate(398.969215 644.598438)scale(0.1 -0.1)">
       <use xlink:href="#DejaVuSans-31"/>
       <use x="63.623047" xlink:href="#DejaVuSans-39"/>
       <use x="127.246094" xlink:href="#DejaVuSans-34"/>
       <use x="190.869141" xlink:href="#DejaVuSans-30"/>
      </g>
     </g>
    </g>
    <g id="xtick_4">
     <g id="line2d_4">
      <g>
       <use style="stroke:#000000;stroke-width:0.8;" x="550.041322" xlink:href="#m444441429c" y="630"/>
      </g>
     </g>
     <g id="text_13">
      <!-- 1960 -->
      <defs>
       <path d="M 33.015625 40.375 
Q 26.375 40.375 22.484375 35.828125 
Q 18.609375 31.296875 18.609375 23.390625 
Q 18.609375 15.53125 22.484375 10.953125 
Q 26.375 6.390625 33.015625 6.390625 
Q 39.65625 6.390625 43.53125 10.953125 
Q 47.40625 15.53125 47.40625 23.390625 
Q 47.40625 31.296875 43.53125 35.828125 
Q 39.65625 40.375 33.015625 40.375 
z
M 52.59375 71.296875 
L 52.59375 62.3125 
Q 48.875 64.0625 45.09375 64.984375 
Q 41.3125 65.921875 37.59375 65.921875 
Q 27.828125 65.921875 22.671875 59.328125 
Q 17.53125 52.734375 16.796875 39.40625 
Q 19.671875 43.65625 24.015625 45.921875 
Q 28.375 48.1875 33.59375 48.1875 
Q 44.578125 48.1875 50.953125 41.515625 
Q 57.328125 34.859375 57.328125 23.390625 
Q 57.328125 12.15625 50.6875 5.359375 
Q 44.046875 -1.421875 33.015625 -1.421875 
Q 20.359375 -1.421875 13.671875 8.265625 
Q 6.984375 17.96875 6.984375 36.375 
Q 6.984375 53.65625 15.1875 63.9375 
Q 23.390625 74.21875 37.203125 74.21875 
Q 40.921875 74.21875 44.703125 73.484375 
Q 48.484375 72.75 52.59375 71.296875 
z
" id="DejaVuSans-36"/>
      </defs>
      <g transform="translate(537.316322 644.598438)scale(0.1 -0.1)">
       <use xlink:href="#DejaVuSans-31"/>
       <use x="63.623047" xlink:href="#DejaVuSans-39"/>
       <use x="127.246094" xlink:href="#DejaVuSans-36"/>
       <use x="190.869141" xlink:href="#DejaVuSans-30"/>
      </g>
     </g>
    </g>
    <g id="xtick_5">
     <g id="line2d_5">
      <g>
       <use style="stroke:#000000;stroke-width:0.8;" x="688.38843" xlink:href="#m444441429c" y="630"/>
      </g>
     </g>
     <g id="text_14">
      <!-- 1980 -->
      <defs>
       <path d="M 31.78125 34.625 
Q 24.75 34.625 20.71875 30.859375 
Q 16.703125 27.09375 16.703125 20.515625 
Q 16.703125 13.921875 20.71875 10.15625 
Q 24.75 6.390625 31.78125 6.390625 
Q 38.8125 6.390625 42.859375 10.171875 
Q 46.921875 13.96875 46.921875 20.515625 
Q 46.921875 27.09375 42.890625 30.859375 
Q 38.875 34.625 31.78125 34.625 
z
M 21.921875 38.8125 
Q 15.578125 40.375 12.03125 44.71875 
Q 8.5 49.078125 8.5 55.328125 
Q 8.5 64.0625 14.71875 69.140625 
Q 20.953125 74.21875 31.78125 74.21875 
Q 42.671875 74.21875 48.875 69.140625 
Q 55.078125 64.0625 55.078125 55.328125 
Q 55.078125 49.078125 51.53125 44.71875 
Q 48 40.375 41.703125 38.8125 
Q 48.828125 37.15625 52.796875 32.3125 
Q 56.78125 27.484375 56.78125 20.515625 
Q 56.78125 9.90625 50.3125 4.234375 
Q 43.84375 -1.421875 31.78125 -1.421875 
Q 19.734375 -1.421875 13.25 4.234375 
Q 6.78125 9.90625 6.78125 20.515625 
Q 6.78125 27.484375 10.78125 32.3125 
Q 14.796875 37.15625 21.921875 38.8125 
z
M 18.3125 54.390625 
Q 18.3125 48.734375 21.84375 45.5625 
Q 25.390625 42.390625 31.78125 42.390625 
Q 38.140625 42.390625 41.71875 45.5625 
Q 45.3125 48.734375 45.3125 54.390625 
Q 45.3125 60.0625 41.71875 63.234375 
Q 38.140625 66.40625 31.78125 66.40625 
Q 25.390625 66.40625 21.84375 63.234375 
Q 18.3125 60.0625 18.3125 54.390625 
z
" id="DejaVuSans-38"/>
      </defs>
      <g transform="translate(675.66343 644.598438)scale(0.1 -0.1)">
       <use xlink:href="#DejaVuSans-31"/>
       <use x="63.623047" xlink:href="#DejaVuSans-39"/>
       <use x="127.246094" xlink:href="#DejaVuSans-38"/>
       <use x="190.869141" xlink:href="#DejaVuSans-30"/>
      </g>
     </g>
    </g>
    <g id="xtick_6">
     <g id="line2d_6">
      <g>
       <use style="stroke:#000000;stroke-width:0.8;" x="826.735537" xlink:href="#m444441429c" y="630"/>
      </g>
     </g>
     <g id="text_15">
      <!-- 2000 -->
      <g transform="translate(814.010537 644.598438)scale(0.1 -0.1)">
       <use xlink:href="#DejaVuSans-32"/>
       <use x="63.623047" xlink:href="#DejaVuSans-30"/>
       <use x="127.246094" xlink:href="#DejaVuSans-30"/>
       <use x="190.869141" xlink:href="#DejaVuSans-30"/>
      </g>
     </g>
    </g>
    <g id="xtick_7">
     <g id="line2d_7">
      <g>
       <use style="stroke:#000000;stroke-width:0.8;" x="965.082645" xlink:href="#m444441429c" y="630"/>
      </g>
     </g>
     <g id="text_16">
      <!-- 2020 -->
      <g transform="translate(952.357645 644.598438)scale(0.1 -0.1)">
       <use xlink:href="#DejaVuSans-32"/>
       <use x="63.623047" xlink:href="#DejaVuSans-30"/>
       <use x="127.246094" xlink:href="#DejaVuSans-32"/>
       <use x="190.869141" xlink:href="#DejaVuSans-30"/>
      </g>
     </g>
    </g>
    <g id="text_17">
     <!-- Year -->
     <defs>
      <path d="M -0.203125 72.90625 
L 10.40625 72.90625 
L 30.609375 42.921875 
L 50.6875 72.90625 
L 61.28125 72.90625 
L 35.5 34.71875 
L 35.5 0 
L 25.59375 0 
L 25.59375 34.71875 
z
" id="DejaVuSans-59"/>
     </defs>
     <g transform="translate(540.012187 659.79625)scale(0.12 -0.12)">
      <use xlink:href="#DejaVuSans-59"/>
      <use x="60.880859" xlink:href="#DejaVuSans-65"/>
      <use x="122.404297" xlink:href="#DejaVuSans-61"/>
      <use x="183.683594" xlink:href="#DejaVuSans-72"/>
     </g>
    </g>
   </g>
   <g id="matplotlib.axis_2">
    <g id="ytick_1">
     <g id="line2d_8">
      <defs>
       <path d="M 0 0 
L -3.5 0 
" id="m934c65f54b" style="stroke:#000000;stroke-width:0.8;"/>
      </defs>
      <g>
       <use style="stroke:#000000;stroke-width:0.8;" x="135" xlink:href="#m934c65f54b" y="630"/>
      </g>
     </g>
     <g id="text_18">
      <!-- 0 -->
      <g transform="translate(121.6375 633.799219)scale(0.1 -0.1)">
       <use xlink:href="#DejaVuSans-30"/>
      </g>
     </g>
    </g>
    <g id="ytick_2">
     <g id="line2d_9">
      <g>
       <use style="stroke:#000000;stroke-width:0.8;" x="135" xlink:href="#m934c65f54b" y="552.342857"/>
      </g>
     </g>
     <g id="text_19">
      <!-- 1000 -->
      <g transform="translate(102.55 556.142076)scale(0.1 -0.1)">
       <use xlink:href="#DejaVuSans-31"/>
       <use x="63.623047" xlink:href="#DejaVuSans-30"/>
       <use x="127.246094" xlink:href="#DejaVuSans-30"/>
       <use x="190.869141" xlink:href="#DejaVuSans-30"/>
      </g>
     </g>
    </g>
    <g id="ytick_3">
     <g id="line2d_10">
      <g>
       <use style="stroke:#000000;stroke-width:0.8;" x="135" xlink:href="#m934c65f54b" y="474.685714"/>
      </g>
     </g>
     <g id="text_20">
      <!-- 2000 -->
      <g transform="translate(102.55 478.484933)scale(0.1 -0.1)">
       <use xlink:href="#DejaVuSans-32"/>
       <use x="63.623047" xlink:href="#DejaVuSans-30"/>
       <use x="127.246094" xlink:href="#DejaVuSans-30"/>
       <use x="190.869141" xlink:href="#DejaVuSans-30"/>
      </g>
     </g>
    </g>
    <g id="ytick_4">
     <g id="line2d_11">
      <g>
       <use style="stroke:#000000;stroke-width:0.8;" x="135" xlink:href="#m934c65f54b" y="397.028571"/>
      </g>
     </g>
     <g id="text_21">
      <!-- 3000 -->
      <defs>
       <path d="M 40.578125 39.3125 
Q 47.65625 37.796875 51.625 33 
Q 55.609375 28.21875 55.609375 21.1875 
Q 55.609375 10.40625 48.1875 4.484375 
Q 40.765625 -1.421875 27.09375 -1.421875 
Q 22.515625 -1.421875 17.65625 -0.515625 
Q 12.796875 0.390625 7.625 2.203125 
L 7.625 11.71875 
Q 11.71875 9.328125 16.59375 8.109375 
Q 21.484375 6.890625 26.8125 6.890625 
Q 36.078125 6.890625 40.9375 10.546875 
Q 45.796875 14.203125 45.796875 21.1875 
Q 45.796875 27.640625 41.28125 31.265625 
Q 36.765625 34.90625 28.71875 34.90625 
L 20.21875 34.90625 
L 20.21875 43.015625 
L 29.109375 43.015625 
Q 36.375 43.015625 40.234375 45.921875 
Q 44.09375 48.828125 44.09375 54.296875 
Q 44.09375 59.90625 40.109375 62.90625 
Q 36.140625 65.921875 28.71875 65.921875 
Q 24.65625 65.921875 20.015625 65.03125 
Q 15.375 64.15625 9.8125 62.3125 
L 9.8125 71.09375 
Q 15.4375 72.65625 20.34375 73.4375 
Q 25.25 74.21875 29.59375 74.21875 
Q 40.828125 74.21875 47.359375 69.109375 
Q 53.90625 64.015625 53.90625 55.328125 
Q 53.90625 49.265625 50.4375 45.09375 
Q 46.96875 40.921875 40.578125 39.3125 
z
" id="DejaVuSans-33"/>
      </defs>
      <g transform="translate(102.55 400.82779)scale(0.1 -0.1)">
       <use xlink:href="#DejaVuSans-33"/>
       <use x="63.623047" xlink:href="#DejaVuSans-30"/>
       <use x="127.246094" xlink:href="#DejaVuSans-30"/>
       <use x="190.869141" xlink:href="#DejaVuSans-30"/>
      </g>
     </g>
    </g>
    <g id="ytick_5">
     <g id="line2d_12">
      <g>
       <use style="stroke:#000000;stroke-width:0.8;" x="135" xlink:href="#m934c65f54b" y="319.371429"/>
      </g>
     </g>
     <g id="text_22">
      <!-- 4000 -->
      <g transform="translate(102.55 323.170647)scale(0.1 -0.1)">
       <use xlink:href="#DejaVuSans-34"/>
       <use x="63.623047" xlink:href="#DejaVuSans-30"/>
       <use x="127.246094" xlink:href="#DejaVuSans-30"/>
       <use x="190.869141" xlink:href="#DejaVuSans-30"/>
      </g>
     </g>
    </g>
    <g id="ytick_6">
     <g id="line2d_13">
      <g>
       <use style="stroke:#000000;stroke-width:0.8;" x="135" xlink:href="#m934c65f54b" y="241.714286"/>
      </g>
     </g>
     <g id="text_23">
      <!-- 5000 -->
      <defs>
       <path d="M 10.796875 72.90625 
L 49.515625 72.90625 
L 49.515625 64.59375 
L 19.828125 64.59375 
L 19.828125 46.734375 
Q 21.96875 47.46875 24.109375 47.828125 
Q 26.265625 48.1875 28.421875 48.1875 
Q 40.625 48.1875 47.75 41.5 
Q 54.890625 34.8125 54.890625 23.390625 
Q 54.890625 11.625 47.5625 5.09375 
Q 40.234375 -1.421875 26.90625 -1.421875 
Q 22.3125 -1.421875 17.546875 -0.640625 
Q 12.796875 0.140625 7.71875 1.703125 
L 7.71875 11.625 
Q 12.109375 9.234375 16.796875 8.0625 
Q 21.484375 6.890625 26.703125 6.890625 
Q 35.15625 6.890625 40.078125 11.328125 
Q 45.015625 15.765625 45.015625 23.390625 
Q 45.015625 31 40.078125 35.4375 
Q 35.15625 39.890625 26.703125 39.890625 
Q 22.75 39.890625 18.8125 39.015625 
Q 14.890625 38.140625 10.796875 36.28125 
z
" id="DejaVuSans-35"/>
      </defs>
      <g transform="translate(102.55 245.513504)scale(0.1 -0.1)">
       <use xlink:href="#DejaVuSans-35"/>
       <use x="63.623047" xlink:href="#DejaVuSans-30"/>
       <use x="127.246094" xlink:href="#DejaVuSans-30"/>
       <use x="190.869141" xlink:href="#DejaVuSans-30"/>
      </g>
     </g>
    </g>
    <g id="ytick_7">
     <g id="line2d_14">
      <g>
       <use style="stroke:#000000;stroke-width:0.8;" x="135" xlink:href="#m934c65f54b" y="164.057143"/>
      </g>
     </g>
     <g id="text_24">
      <!-- 6000 -->
      <g transform="translate(102.55 167.856362)scale(0.1 -0.1)">
       <use xlink:href="#DejaVuSans-36"/>
       <use x="63.623047" xlink:href="#DejaVuSans-30"/>
       <use x="127.246094" xlink:href="#DejaVuSans-30"/>
       <use x="190.869141" xlink:href="#DejaVuSans-30"/>
      </g>
     </g>
    </g>
    <g id="ytick_8">
     <g id="line2d_15">
      <g>
       <use style="stroke:#000000;stroke-width:0.8;" x="135" xlink:href="#m934c65f54b" y="86.4"/>
      </g>
     </g>
     <g id="text_25">
      <!-- 7000 -->
      <defs>
       <path d="M 8.203125 72.90625 
L 55.078125 72.90625 
L 55.078125 68.703125 
L 28.609375 0 
L 18.3125 0 
L 43.21875 64.59375 
L 8.203125 64.59375 
z
" id="DejaVuSans-37"/>
      </defs>
      <g transform="translate(102.55 90.199219)scale(0.1 -0.1)">
       <use xlink:href="#DejaVuSans-37"/>
       <use x="63.623047" xlink:href="#DejaVuSans-30"/>
       <use x="127.246094" xlink:href="#DejaVuSans-30"/>
       <use x="190.869141" xlink:href="#DejaVuSans-30"/>
      </g>
     </g>
    </g>
    <g id="text_26">
     <!-- Publications -->
     <defs>
      <path d="M 8.5 21.578125 
L 8.5 54.6875 
L 17.484375 54.6875 
L 17.484375 21.921875 
Q 17.484375 14.15625 20.5 10.265625 
Q 23.53125 6.390625 29.59375 6.390625 
Q 36.859375 6.390625 41.078125 11.03125 
Q 45.3125 15.671875 45.3125 23.6875 
L 45.3125 54.6875 
L 54.296875 54.6875 
L 54.296875 0 
L 45.3125 0 
L 45.3125 8.40625 
Q 42.046875 3.421875 37.71875 1 
Q 33.40625 -1.421875 27.6875 -1.421875 
Q 18.265625 -1.421875 13.375 4.4375 
Q 8.5 10.296875 8.5 21.578125 
z
M 31.109375 56 
z
" id="DejaVuSans-75"/>
      <path d="M 18.3125 70.21875 
L 18.3125 54.6875 
L 36.8125 54.6875 
L 36.8125 47.703125 
L 18.3125 47.703125 
L 18.3125 18.015625 
Q 18.3125 11.328125 20.140625 9.421875 
Q 21.96875 7.515625 27.59375 7.515625 
L 36.8125 7.515625 
L 36.8125 0 
L 27.59375 0 
Q 17.1875 0 13.234375 3.875 
Q 9.28125 7.765625 9.28125 18.015625 
L 9.28125 47.703125 
L 2.6875 47.703125 
L 2.6875 54.6875 
L 9.28125 54.6875 
L 9.28125 70.21875 
z
" id="DejaVuSans-74"/>
     </defs>
     <g transform="translate(96.054375 394.356562)rotate(-90)scale(0.12 -0.12)">
      <use xlink:href="#DejaVuSans-50"/>
      <use x="60.287109" xlink:href="#DejaVuSans-75"/>
      <use x="123.666016" xlink:href="#DejaVuSans-62"/>
      <use x="187.142578" xlink:href="#DejaVuSans-6c"/>
      <use x="214.925781" xlink:href="#DejaVuSans-69"/>
      <use x="242.708984" xlink:href="#DejaVuSans-63"/>
      <use x="297.689453" xlink:href="#DejaVuSans-61"/>
      <use x="358.96875" xlink:href="#DejaVuSans-74"/>
      <use x="398.177734" xlink:href="#DejaVuSans-69"/>
      <use x="425.960938" xlink:href="#DejaVuSans-6f"/>
      <use x="487.142578" xlink:href="#DejaVuSans-6e"/>
      <use x="550.521484" xlink:href="#DejaVuSans-73"/>
     </g>
    </g>
   </g>
   <g id="line2d_16">
    <path clip-path="url(#pbbbbf00aba)" d="M 951.247934 332.806114 
L 944.330579 385.38 
L 937.413223 380.176971 
L 930.495868 390.039429 
L 923.578512 418.228971 
L 916.661157 419.0832 
L 909.743802 415.8216 
L 902.826446 421.645886 
L 895.909091 420.481029 
L 888.991736 423.509657 
L 882.07438 418.927886 
L 875.157025 414.889714 
L 868.239669 404.406 
L 861.322314 397.727486 
L 854.404959 412.171714 
L 847.487603 417.840686 
L 840.570248 417.763029 
L 833.652893 407.356971 
L 826.735537 397.416857 
L 819.818182 398.892343 
L 812.900826 395.475429 
L 805.983471 394.232914 
L 799.066116 392.679771 
L 792.14876 377.070686 
L 785.231405 376.915371 
L 778.31405 371.557029 
L 771.396694 365.655086 
L 764.479339 370.858114 
L 757.561983 345.308914 
L 750.644628 355.792629 
L 743.727273 349.968343 
L 736.809917 339.562286 
L 729.892562 356.879829 
L 722.975207 365.655086 
L 716.057851 358.122343 
L 709.140496 375.672857 
L 702.22314 403.707086 
L 695.305785 406.658057 
L 688.38843 402.619886 
L 681.471074 385.535314 
L 674.553719 395.630743 
L 667.636364 398.348743 
L 660.719008 406.347429 
L 653.801653 395.863714 
L 646.884298 387.399086 
L 639.966942 425.528743 
L 633.049587 455.193771 
L 626.132231 393.301029 
L 619.214876 310.596171 
L 612.297521 379.944 
L 605.380165 397.183886 
L 598.46281 286.211829 
L 591.545455 249.091714 
L 584.628099 286.833086 
L 577.710744 327.2148 
L 570.793388 313.702457 
L 563.876033 315.876857 
L 556.958678 325.661657 
L 550.041322 361.539257 
L 543.123967 377.458971 
L 536.206612 395.786057 
L 529.289256 448.9812 
L 522.371901 446.2632 
L 515.454545 481.5972 
L 508.53719 485.946 
L 501.619835 489.673543 
L 494.702479 498.914743 
L 487.785124 498.293486 
L 480.867769 490.993714 
L 473.950413 492.4692 
L 467.033058 500.778514 
L 460.115702 510.330343 
L 453.198347 496.041429 
L 446.280992 516.154629 
L 439.363636 555.371486 
L 432.446281 568.806171 
L 425.528926 569.505086 
L 418.61157 570.048686 
L 411.694215 557.390571 
L 404.77686 551.7216 
L 397.859504 530.288229 
L 390.942149 586.977943 
L 384.024793 580.765371 
L 377.107438 532.928571 
L 370.190083 541.859143 
L 363.272727 549.5472 
L 356.355372 548.537657 
L 349.438017 552.964114 
L 342.520661 551.255657 
L 335.603306 558.710743 
L 328.68595 558.089486 
L 321.768595 555.837429 
L 314.85124 555.060857 
L 307.933884 561.817029 
L 301.016529 560.807486 
L 294.099174 553.585371 
L 287.181818 557.778857 
L 280.264463 535.180629 
L 273.347107 560.263886 
L 266.429752 587.366229 
L 259.512397 584.492914 
L 252.595041 588.375771 
L 245.677686 581.153657 
L 238.760331 579.134571 
L 231.842975 577.8144 
L 224.92562 575.174057 
L 218.008264 574.319829 
L 211.090909 557.778857 
L 204.173554 563.758457 
L 197.256198 571.601829 
L 190.338843 580.221771 
L 183.421488 581.231314 
L 176.504132 579.678171 
L 169.586777 581.852571 
L 162.669421 579.134571 
L 155.752066 580.687714 
L 148.834711 582.784457 
L 141.917355 588.065143 
L 135 611.828229 
L 128.082645 628.9128 
L 121.165289 629.922343 
L 114.247934 629.922343 
" style="fill:none;stroke:#ff0000;stroke-linecap:square;stroke-width:1.5;"/>
   </g>
   <g id="line2d_17">
    <path clip-path="url(#pbbbbf00aba)" d="M 951.247934 408.055886 
L 944.330579 368.373086 
L 937.413223 408.677143 
L 930.495868 419.316171 
L 923.578512 422.655429 
L 916.661157 420.791657 
L 909.743802 409.220743 
L 902.826446 409.453714 
L 895.909091 432.828514 
L 888.991736 426.538286 
L 882.07438 429.489257 
L 875.157025 425.0628 
L 868.239669 418.151314 
L 861.322314 412.637657 
L 854.404959 414.501429 
L 847.487603 422.034171 
L 840.570248 407.434629 
L 833.652893 412.171714 
L 826.735537 412.948286 
L 819.818182 416.753486 
L 812.900826 416.209886 
L 805.983471 414.656743 
L 799.066116 388.330971 
L 792.14876 396.252 
L 785.231405 391.9032 
L 778.31405 396.174343 
L 771.396694 413.724857 
L 764.479339 422.810743 
L 757.561983 436.633714 
L 750.644628 441.137829 
L 743.727273 435.080571 
L 736.809917 435.9348 
L 729.892562 446.418514 
L 722.975207 465.133886 
L 716.057851 458.067086 
L 709.140496 456.358629 
L 702.22314 448.126971 
L 695.305785 443.0016 
L 688.38843 466.454057 
L 681.471074 460.552114 
L 674.553719 466.997657 
L 667.636364 463.1148 
L 660.719008 468.5508 
L 653.801653 488.586343 
L 646.884298 487.732114 
L 639.966942 468.473143 
L 633.049587 482.6844 
L 626.132231 488.508686 
L 619.214876 446.573829 
L 612.297521 477.170743 
L 605.380165 474.608057 
L 598.46281 421.2576 
L 591.545455 426.15 
L 584.628099 417.141771 
L 577.710744 458.455371 
L 570.793388 487.5768 
L 563.876033 525.162857 
L 556.958678 539.374114 
L 550.041322 530.365886 
L 543.123967 545.664343 
L 536.206612 547.450457 
L 529.289256 551.488629 
L 522.371901 551.100343 
L 515.454545 558.322457 
L 508.53719 542.946343 
L 501.619835 557.934171 
L 494.702479 553.740686 
L 487.785124 556.846971 
L 480.867769 564.146743 
L 473.950413 570.669943 
L 467.033058 564.2244 
L 460.115702 568.806171 
L 453.198347 505.437943 
L 446.280992 549.702514 
L 439.363636 567.253029 
L 432.446281 560.729829 
L 425.528926 553.585371 
L 418.61157 556.924629 
L 411.694215 559.099029 
L 404.77686 582.473829 
L 397.859504 581.308971 
L 390.942149 576.649543 
L 384.024793 582.396171 
L 377.107438 578.9016 
L 370.190083 572.223086 
L 363.272727 577.581429 
L 356.355372 575.329371 
L 349.438017 579.289886 
L 342.520661 577.659086 
L 335.603306 554.9832 
L 328.68595 571.679486 
L 321.768595 560.807486 
L 314.85124 578.047371 
L 307.933884 560.807486 
L 301.016529 580.066457 
L 294.099174 585.580114 
L 287.181818 584.026971 
L 280.264463 592.180971 
L 273.347107 593.811771 
L 266.429752 596.995714 
L 259.512397 597.306343 
L 252.595041 599.403086 
L 245.677686 584.3376 
L 238.760331 585.502457 
L 231.842975 581.386629 
L 224.92562 586.046057 
L 218.008264 589.851257 
L 211.090909 577.348457 
L 204.173554 579.4452 
L 197.256198 585.890743 
L 190.338843 588.997029 
L 183.421488 587.0556 
L 176.504132 585.735429 
L 169.586777 590.8608 
L 162.669421 588.841714 
L 155.752066 591.948 
L 148.834711 587.288571 
L 141.917355 586.279029 
L 135 588.220457 
L 128.082645 591.171429 
L 121.165289 578.513314 
L 114.247934 585.4248 
L 107.330579 582.551486 
L 100.413223 595.2096 
L 93.495868 618.429086 
L 86.578512 575.0964 
L 79.661157 585.4248 
L 72.743802 600.412629 
L 65.826446 593.190514 
L 58.909091 560.108571 
L 51.991736 588.6864 
L 45.07438 573.4656 
L 38.157025 560.496857 
L 31.239669 560.263886 
L 24.322314 566.165829 
L 17.404959 576.960171 
L 3.570248 593.811771 
L -1 601.713131 
L -1 601.713131 
" style="fill:none;stroke:#ff4500;stroke-linecap:square;stroke-opacity:0.5;stroke-width:1.5;"/>
   </g>
   <g id="line2d_18">
    <path clip-path="url(#pbbbbf00aba)" d="M 951.247934 626.660743 
L 944.330579 622.3896 
L 937.413223 616.254686 
L 930.495868 616.332343 
L 923.578512 616.798286 
L 916.661157 612.837771 
L 909.743802 612.682457 
L 902.826446 613.536686 
L 895.909091 613.1484 
L 888.991736 612.0612 
L 882.07438 612.6048 
L 875.157025 611.595257 
L 868.239669 613.924971 
L 861.322314 612.294171 
L 854.404959 610.585714 
L 847.487603 608.023029 
L 840.570248 607.790057 
L 833.652893 606.314571 
L 826.735537 607.479429 
L 819.818182 605.848629 
L 812.900826 608.333657 
L 805.983471 612.682457 
L 799.066116 614.934514 
L 792.14876 614.701543 
L 785.231405 615.089829 
L 778.31405 615.555771 
L 771.396694 620.292857 
L 764.479339 619.904571 
L 757.561983 621.147086 
L 750.644628 621.846 
L 743.727273 620.836457 
L 736.809917 621.923657 
L 729.892562 623.088514 
L 722.975207 624.874629 
L 716.057851 624.253371 
L 709.140496 624.486343 
L 702.22314 624.719314 
L 695.305785 624.331029 
L 688.38843 625.262914 
L 681.471074 626.816057 
L 674.553719 626.039486 
L 667.636364 625.495886 
L 660.719008 625.728857 
L 653.801653 626.272457 
L 646.884298 626.660743 
L 639.966942 626.505429 
L 633.049587 627.204343 
L 626.132231 626.816057 
L 619.214876 627.592629 
L 612.297521 627.592629 
L 605.380165 628.602171 
L 598.46281 628.058571 
L 591.545455 627.980914 
L 584.628099 628.291543 
L 577.710744 627.747943 
L 570.793388 628.835143 
L 563.876033 628.679829 
L 556.958678 628.058571 
L 550.041322 628.602171 
L 543.123967 628.9128 
L 536.206612 628.990457 
L 529.289256 629.145771 
L 522.371901 628.679829 
L 515.454545 628.058571 
L 508.53719 628.446857 
L 501.619835 628.524514 
L 494.702479 628.213886 
L 487.785124 629.223429 
L 480.867769 629.223429 
L 473.950413 628.990457 
L 467.033058 629.068114 
L 460.115702 629.145771 
L 453.198347 628.9128 
L 446.280992 629.068114 
L 439.363636 629.689371 
L 432.446281 629.378743 
L 425.528926 629.534057 
L 418.61157 629.145771 
L 411.694215 629.223429 
L 404.77686 629.223429 
L 397.859504 629.534057 
L 390.942149 629.767029 
L 384.024793 629.534057 
L 377.107438 629.4564 
L 370.190083 629.534057 
L 363.272727 629.378743 
L 356.355372 629.378743 
L 349.438017 629.844686 
L 342.520661 629.689371 
L 335.603306 629.844686 
L 328.68595 629.223429 
L 321.768595 629.534057 
L 314.85124 629.611714 
L 307.933884 629.4564 
L 301.016529 629.611714 
L 294.099174 629.767029 
L 287.181818 628.9128 
L 280.264463 629.844686 
L 273.347107 629.689371 
L 266.429752 629.534057 
L 259.512397 628.757486 
L 252.595041 629.611714 
L 245.677686 629.611714 
L 238.760331 629.378743 
L 231.842975 629.922343 
L 224.92562 629.223429 
L 218.008264 629.534057 
L 211.090909 629.068114 
L 204.173554 629.611714 
L 197.256198 629.611714 
L 190.338843 629.534057 
L 183.421488 629.767029 
L 176.504132 629.767029 
L 169.586777 629.4564 
L 162.669421 629.4564 
L 155.752066 629.844686 
L 148.834711 629.611714 
L 141.917355 629.767029 
L 135 629.223429 
" style="fill:none;stroke:#0000ff;stroke-linecap:square;stroke-opacity:0.5;stroke-width:1.5;"/>
   </g>
   <g id="line2d_19">
    <path clip-path="url(#pbbbbf00aba)" d="M 951.247934 578.513314 
L 944.330579 586.822629 
L 937.413223 573.620914 
L 930.495868 577.8144 
L 923.578512 581.153657 
L 916.661157 581.231314 
L 909.743802 584.259943 
L 902.826446 586.512 
L 895.909091 584.648229 
L 888.991736 579.212229 
L 882.07438 578.823943 
L 875.157025 578.746286 
L 868.239669 580.144114 
L 861.322314 593.5788 
L 854.404959 595.986171 
L 847.487603 601.1892 
L 840.570248 601.1892 
L 833.652893 600.800914 
L 826.735537 600.257314 
L 819.818182 601.344514 
L 812.900826 595.364914 
L 805.983471 592.802229 
L 799.066116 593.501143 
L 792.14876 590.627829 
L 785.231405 591.326743 
L 778.31405 590.783143 
L 771.396694 593.656457 
L 764.479339 590.550171 
L 757.561983 589.7736 
L 750.644628 590.161886 
L 743.727273 595.2096 
L 736.809917 594.743657 
L 729.892562 595.908514 
L 722.975207 597.616971 
L 716.057851 596.762743 
L 709.140496 592.879886 
L 702.22314 599.092457 
L 695.305785 598.859486 
L 688.38843 599.325429 
L 681.471074 605.615657 
L 674.553719 606.003943 
L 667.636364 608.178343 
L 660.719008 613.847314 
L 653.801653 617.963143 
L 646.884298 620.681143 
" style="fill:none;stroke:#000000;stroke-linecap:square;stroke-opacity:0.5;stroke-width:1.5;"/>
   </g>
   <g id="line2d_20">
    <path clip-path="url(#pbbbbf00aba)" d="M 951.247934 561.584057 
L 944.330579 561.351086 
L 937.413223 564.2244 
L 930.495868 565.8552 
L 923.578512 566.9424 
L 916.661157 569.738057 
L 909.743802 572.689029 
L 902.826446 576.804857 
L 895.909091 567.175371 
L 888.991736 567.874286 
L 882.07438 566.010514 
L 875.157025 569.039143 
L 868.239669 568.417886 
L 861.322314 571.213543 
L 854.404959 572.844343 
L 847.487603 575.795314 
L 840.570248 578.435657 
L 833.652893 578.668629 
L 826.735537 581.231314 
L 819.818182 582.007886 
L 812.900826 584.958857 
L 805.983471 596.141486 
L 799.066116 599.480743 
L 792.14876 608.256 
L 785.231405 607.557086 
L 778.31405 611.750571 
L 771.396694 616.099371 
L 764.479339 619.438629 
" style="fill:none;stroke:#00bfbf;stroke-linecap:square;stroke-opacity:0.5;stroke-width:1.5;"/>
   </g>
   <g id="line2d_21">
    <path clip-path="url(#pbbbbf00aba)" d="M 951.247934 606.003943 
L 944.330579 606.003943 
L 937.413223 605.926286 
L 930.495868 603.3636 
L 923.578512 602.121086 
L 916.661157 592.4916 
L 909.743802 595.986171 
L 902.826446 586.279029 
L 895.909091 589.462971 
L 888.991736 583.095086 
L 882.07438 585.735429 
L 875.157025 577.8144 
L 868.239669 584.492914 
L 861.322314 587.909829 
L 854.404959 599.325429 
L 847.487603 607.867714 
L 840.570248 609.964457 
L 833.652893 604.9944 
L 826.735537 605.382686 
L 819.818182 613.536686 
L 812.900826 616.565314 
L 805.983471 615.711086 
L 799.066116 614.934514 
L 792.14876 612.371829 
L 785.231405 617.652514 
L 778.31405 615.711086 
L 771.396694 615.3228 
L 764.479339 612.837771 
L 757.561983 616.9536 
L 750.644628 618.351429 
L 743.727273 617.652514 
L 736.809917 618.895029 
L 729.892562 619.205657 
L 722.975207 619.826914 
L 716.057851 619.438629 
L 709.140496 620.7588 
L 702.22314 619.128 
L 695.305785 618.506743 
L 688.38843 619.360971 
L 681.471074 619.283314 
L 674.553719 625.340571 
L 667.636364 626.1948 
L 660.719008 625.961829 
L 653.801653 626.505429 
" style="fill:none;stroke:#bf00bf;stroke-linecap:square;stroke-opacity:0.5;stroke-width:1.5;"/>
   </g>
   <g id="line2d_22">
    <path clip-path="url(#pbbbbf00aba)" d="M 951.247934 525.473486 
L 944.330579 515.3004 
L 937.413223 506.758114 
L 930.495868 512.271771 
L 923.578512 528.735086 
L 916.661157 530.676514 
L 909.743802 519.804514 
L 902.826446 519.416229 
L 895.909091 508.2336 
L 888.991736 498.371143 
L 882.07438 499.225371 
L 875.157025 491.459657 
L 868.239669 491.537314 
L 861.322314 490.061829 
L 854.404959 485.790686 
L 847.487603 489.828857 
L 840.570248 488.1204 
L 833.652893 520.348114 
L 826.735537 507.301714 
L 819.818182 502.331657 
L 812.900826 503.030571 
L 805.983471 497.749886 
L 799.066116 504.661371 
L 792.14876 499.536 
L 785.231405 491.692629 
L 778.31405 493.789371 
L 771.396694 497.982857 
L 764.479339 504.040114 
L 757.561983 499.458343 
L 750.644628 501.011486 
L 743.727273 500.6232 
L 736.809917 509.942057 
L 729.892562 499.768971 
L 722.975207 499.536 
L 716.057851 455.582057 
L 709.140496 472.588971 
L 702.22314 480.121714 
L 695.305785 487.343829 
L 688.38843 491.614971 
L 681.471074 499.458343 
L 674.553719 495.420171 
L 667.636364 492.391543 
L 660.719008 484.548171 
L 653.801653 495.031886 
L 646.884298 495.1872 
L 639.966942 498.837086 
L 633.049587 511.262229 
L 626.132231 508.078286 
L 619.214876 519.882171 
L 612.297521 534.015771 
L 605.380165 546.673886 
L 598.46281 543.5676 
L 591.545455 542.402743 
L 584.628099 545.509029 
L 577.710744 547.838743 
L 570.793388 557.002286 
L 563.876033 553.041771 
L 556.958678 556.769314 
L 550.041322 558.477771 
L 543.123967 560.496857 
L 536.206612 572.3784 
L 529.289256 583.638686 
L 522.371901 576.571886 
L 515.454545 585.502457 
L 508.53719 577.193143 
L 501.619835 579.289886 
L 494.702479 580.144114 
L 487.785124 581.774914 
L 480.867769 588.764057 
L 473.950413 581.386629 
L 467.033058 583.405714 
L 460.115702 591.4044 
L 453.198347 594.355371 
L 446.280992 598.704171 
L 439.363636 616.41 
L 432.446281 613.070743 
L 425.528926 607.401771 
L 418.61157 605.227371 
L 411.694215 608.721943 
L 404.77686 608.411314 
L 397.859504 606.0816 
L 390.942149 610.4304 
L 384.024793 601.965771 
L 377.107438 600.102 
L 370.190083 612.915429 
L 363.272727 605.538 
L 356.355372 600.334971 
L 349.438017 603.518914 
L 342.520661 607.1688 
L 335.603306 597.306343 
L 328.68595 602.664686 
" style="fill:none;stroke:#008000;stroke-linecap:square;stroke-opacity:0.5;stroke-width:1.5;"/>
   </g>
   <g id="line2d_23">
    <path clip-path="url(#pbbbbf00aba)" d="M 642.613857 630 
L 642.613857 171.822857 
" style="fill:none;stroke:#000000;stroke-dasharray:1.5,2.475;stroke-dashoffset:0;stroke-width:1.5;"/>
   </g>
   <g id="line2d_24">
    <path clip-path="url(#pbbbbf00aba)" d="M 644.381099 109.697143 
L 644.381099 -1 
" style="fill:none;stroke:#000000;stroke-dasharray:1.5,2.475;stroke-dashoffset:0;stroke-width:1.5;"/>
   </g>
   <g id="line2d_25">
    <path clip-path="url(#pbbbbf00aba)" d="M 590.680785 630 
L 590.680785 171.822857 
" style="fill:none;stroke:#000000;stroke-dasharray:1.5,2.475;stroke-dashoffset:0;stroke-width:1.5;"/>
   </g>
   <g id="line2d_26">
    <path clip-path="url(#pbbbbf00aba)" d="M 592.410124 630 
L 592.410124 171.822857 
" style="fill:none;stroke:#000000;stroke-dasharray:1.5,2.475;stroke-dashoffset:0;stroke-width:1.5;"/>
   </g>
   <g id="line2d_27">
    <path clip-path="url(#pbbbbf00aba)" d="M 590.680785 109.697143 
L 590.680785 -1 
" style="fill:none;stroke:#000000;stroke-dasharray:1.5,2.475;stroke-dashoffset:0;stroke-width:1.5;"/>
   </g>
   <g id="line2d_28">
    <path clip-path="url(#pbbbbf00aba)" d="M 592.410124 109.697143 
L 592.410124 -1 
" style="fill:none;stroke:#000000;stroke-dasharray:1.5,2.475;stroke-dashoffset:0;stroke-width:1.5;"/>
   </g>
   <g id="line2d_29">
    <path clip-path="url(#pbbbbf00aba)" d="M 688.100207 630 
L 688.100207 195.12 
" style="fill:none;stroke:#000000;stroke-dasharray:1.5,2.475;stroke-dashoffset:0;stroke-width:1.5;"/>
   </g>
   <g id="line2d_30">
    <path clip-path="url(#pbbbbf00aba)" d="M 690.940586 630 
L 690.940586 195.12 
" style="fill:none;stroke:#000000;stroke-dasharray:1.5,2.475;stroke-dashoffset:0;stroke-width:1.5;"/>
   </g>
   <g id="line2d_31">
    <path clip-path="url(#pbbbbf00aba)" d="M 688.100207 109.697143 
L 688.100207 -1 
" style="fill:none;stroke:#000000;stroke-dasharray:1.5,2.475;stroke-dashoffset:0;stroke-width:1.5;"/>
   </g>
   <g id="line2d_32">
    <path clip-path="url(#pbbbbf00aba)" d="M 690.940586 109.697143 
L 690.940586 -1 
" style="fill:none;stroke:#000000;stroke-dasharray:1.5,2.475;stroke-dashoffset:0;stroke-width:1.5;"/>
   </g>
   <g id="line2d_33">
    <path clip-path="url(#pbbbbf00aba)" style="fill:none;stroke:#000000;stroke-dasharray:1.5,2.475;stroke-dashoffset:0;stroke-width:1.5;"/>
   </g>
   <g id="line2d_34">
    <path clip-path="url(#pbbbbf00aba)" d="M 272.307925 630 
L 272.307925 86.4 
" style="fill:none;stroke:#000000;stroke-dasharray:1.5,2.475;stroke-dashoffset:0;stroke-width:1.5;"/>
   </g>
   <g id="line2d_35">
    <path clip-path="url(#pbbbbf00aba)" d="M 404.488636 630 
L 404.488636 86.4 
" style="fill:none;stroke:#000000;stroke-dasharray:1.5,2.475;stroke-dashoffset:0;stroke-width:1.5;"/>
   </g>
   <g id="line2d_36">
    <path clip-path="url(#pbbbbf00aba)" d="M 563.58781 630 
L 563.58781 86.4 
" style="fill:none;stroke:#000000;stroke-dasharray:1.5,2.475;stroke-dashoffset:0;stroke-width:1.5;"/>
   </g>
   <g id="line2d_37">
    <path clip-path="url(#pbbbbf00aba)" d="M 798.641283 630 
L 798.641283 86.4 
" style="fill:none;stroke:#000000;stroke-dasharray:1.5,2.475;stroke-dashoffset:0;stroke-width:1.5;"/>
   </g>
   <g id="line2d_38">
    <path clip-path="url(#pbbbbf00aba)" d="M 954.706612 630 
L 954.706612 86.4 
" style="fill:none;stroke:#000000;stroke-dasharray:1.5,2.475;stroke-dashoffset:0;stroke-width:1.5;"/>
   </g>
   <g id="patch_3">
    <path d="M 135 630 
L 135 86.4 
" style="fill:none;stroke:#000000;stroke-linecap:square;stroke-linejoin:miter;stroke-width:0.8;"/>
   </g>
   <g id="patch_4">
    <path d="M 972 630 
L 972 86.4 
" style="fill:none;stroke:#000000;stroke-linecap:square;stroke-linejoin:miter;stroke-width:0.8;"/>
   </g>
   <g id="patch_5">
    <path d="M 135 630 
L 972 630 
" style="fill:none;stroke:#000000;stroke-linecap:square;stroke-linejoin:miter;stroke-width:0.8;"/>
   </g>
   <g id="patch_6">
    <path d="M 135 86.4 
L 972 86.4 
" style="fill:none;stroke:#000000;stroke-linecap:square;stroke-linejoin:miter;stroke-width:0.8;"/>
   </g>
   <g id="text_27">
    <!-- Alun Jones -->
    <g style="opacity:0.6;" transform="translate(647.56538 165.987902)rotate(-90)scale(0.1 -0.1)">
     <use xlink:href="#DejaVuSans-41"/>
     <use x="68.408203" xlink:href="#DejaVuSans-6c"/>
     <use x="96.191406" xlink:href="#DejaVuSans-75"/>
     <use x="159.570312" xlink:href="#DejaVuSans-6e"/>
     <use x="222.949219" xlink:href="#DejaVuSans-20"/>
     <use x="254.736328" xlink:href="#DejaVuSans-4a"/>
     <use x="284.228516" xlink:href="#DejaVuSans-6f"/>
     <use x="345.410156" xlink:href="#DejaVuSans-6e"/>
     <use x="408.789062" xlink:href="#DejaVuSans-65"/>
     <use x="470.3125" xlink:href="#DejaVuSans-73"/>
    </g>
   </g>
   <g id="text_28">
    <!-- WW I -->
    <defs>
     <path d="M 3.328125 72.90625 
L 13.28125 72.90625 
L 28.609375 11.28125 
L 43.890625 72.90625 
L 54.984375 72.90625 
L 70.3125 11.28125 
L 85.59375 72.90625 
L 95.609375 72.90625 
L 77.296875 0 
L 64.890625 0 
L 49.515625 63.28125 
L 33.984375 0 
L 21.578125 0 
z
" id="DejaVuSans-57"/>
     <path d="M 9.8125 72.90625 
L 19.671875 72.90625 
L 19.671875 0 
L 9.8125 0 
z
" id="DejaVuSans-49"/>
    </defs>
    <g transform="translate(254.376508 154.516071)rotate(-90)scale(0.16 -0.16)">
     <use xlink:href="#DejaVuSans-57"/>
     <use x="98.876953" xlink:href="#DejaVuSans-57"/>
     <use x="197.753906" xlink:href="#DejaVuSans-20"/>
     <use x="229.541016" xlink:href="#DejaVuSans-49"/>
    </g>
   </g>
   <g id="text_29">
    <!-- WW II -->
    <g transform="translate(434.227748 159.236071)rotate(-90)scale(0.16 -0.16)">
     <use xlink:href="#DejaVuSans-57"/>
     <use x="98.876953" xlink:href="#DejaVuSans-57"/>
     <use x="197.753906" xlink:href="#DejaVuSans-20"/>
     <use x="229.541016" xlink:href="#DejaVuSans-49"/>
     <use x="259.033203" xlink:href="#DejaVuSans-49"/>
    </g>
   </g>
   <g id="text_30">
    <!-- R. J. Fifield -->
    <defs>
     <path d="M 37.109375 75.984375 
L 37.109375 68.5 
L 28.515625 68.5 
Q 23.6875 68.5 21.796875 66.546875 
Q 19.921875 64.59375 19.921875 59.515625 
L 19.921875 54.6875 
L 34.71875 54.6875 
L 34.71875 47.703125 
L 19.921875 47.703125 
L 19.921875 0 
L 10.890625 0 
L 10.890625 47.703125 
L 2.296875 47.703125 
L 2.296875 54.6875 
L 10.890625 54.6875 
L 10.890625 58.5 
Q 10.890625 67.625 15.140625 71.796875 
Q 19.390625 75.984375 28.609375 75.984375 
z
" id="DejaVuSans-66"/>
    </defs>
    <g style="opacity:0.6;" transform="translate(595.685214 166.450402)rotate(-90)scale(0.1 -0.1)">
     <use xlink:href="#DejaVuSans-52"/>
     <use x="69.435547" xlink:href="#DejaVuSans-2e"/>
     <use x="101.222656" xlink:href="#DejaVuSans-20"/>
     <use x="133.009766" xlink:href="#DejaVuSans-4a"/>
     <use x="162.501953" xlink:href="#DejaVuSans-2e"/>
     <use x="194.289062" xlink:href="#DejaVuSans-20"/>
     <use x="226.076172" xlink:href="#DejaVuSans-46"/>
     <use x="283.486328" xlink:href="#DejaVuSans-69"/>
     <use x="311.269531" xlink:href="#DejaVuSans-66"/>
     <use x="346.474609" xlink:href="#DejaVuSans-69"/>
     <use x="374.257812" xlink:href="#DejaVuSans-65"/>
     <use x="435.78125" xlink:href="#DejaVuSans-6c"/>
     <use x="463.564453" xlink:href="#DejaVuSans-64"/>
    </g>
   </g>
   <g id="text_31">
    <!-- Peter Newmark -->
    <defs>
     <path d="M 4.203125 54.6875 
L 13.1875 54.6875 
L 24.421875 12.015625 
L 35.59375 54.6875 
L 46.1875 54.6875 
L 57.421875 12.015625 
L 68.609375 54.6875 
L 77.59375 54.6875 
L 63.28125 0 
L 52.6875 0 
L 40.921875 44.828125 
L 29.109375 0 
L 18.5 0 
z
" id="DejaVuSans-77"/>
    </defs>
    <g style="opacity:0.6;" transform="translate(692.52819 190.870714)rotate(-90)scale(0.1 -0.1)">
     <use xlink:href="#DejaVuSans-50"/>
     <use x="60.255859" xlink:href="#DejaVuSans-65"/>
     <use x="121.779297" xlink:href="#DejaVuSans-74"/>
     <use x="160.988281" xlink:href="#DejaVuSans-65"/>
     <use x="222.511719" xlink:href="#DejaVuSans-72"/>
     <use x="263.625" xlink:href="#DejaVuSans-20"/>
     <use x="295.412109" xlink:href="#DejaVuSans-4e"/>
     <use x="370.216797" xlink:href="#DejaVuSans-65"/>
     <use x="431.740234" xlink:href="#DejaVuSans-77"/>
     <use x="513.527344" xlink:href="#DejaVuSans-6d"/>
     <use x="610.939453" xlink:href="#DejaVuSans-61"/>
     <use x="672.21875" xlink:href="#DejaVuSans-72"/>
     <use x="713.332031" xlink:href="#DejaVuSans-6b"/>
    </g>
   </g>
  </g>
 </g>
 <defs>
  <clipPath id="pbbbbf00aba">
   <rect height="543.6" width="837" x="135" y="86.4"/>
  </clipPath>
 </defs>
</svg>
